<svg id="Capa_1" data-name="Capa 1" xmlns="http://www.w3.org/2000/svg" viewBox="0 0 397.6 344.15"><title>logoSPblack</title><path d="M158.53,187.42c5.39,0,10,0,14.57,0,34.5,0,69,.2,103.49-.09,31.54-.26,55.68-20.27,60.73-49.67S325.5,78.31,297.31,68c-7-2.54-14.84-3.42-22.32-3.52-29.88-.37-59.76-.14-89.64-.13H175c2-3.38,3.1-5.69,4.54-7.8,29.4-43,84-61.91,134.53-46.5C366,25.91,398.77,71.12,399,127.2c.28,68.93-49.2,119-118,119.33-20.31.09-40.63,0-62.18,0,0,11.82.48,22.88-.23,33.86-.29,4.37-2.17,9.57-5.13,12.67-17.54,18.4-35.61,36.29-55,55.83Z" transform="translate(-1.4 -4.75)"/><path d="M194.91,6.07c-7.9,7.38-15.8,13.38-21.9,20.84a290.72,290.72,0,0,0-22.22,32c-2.52,4.08-4.76,5.57-9.4,5.52-20.63-.22-41.27-.12-61.91-.06-11.56,0-18.77,6-19,15.56-.21,9.85,7.26,16.38,19,16.38q97.37,0,194.72,0c18.7,0,31.64,11.48,31.77,28.51.13,18.57-12.21,30.56-31.44,30.57q-98.17,0-196.35,0c-46.4-.07-79.31-35.07-76.67-81.22C3.65,37.36,35.09,6.18,72.71,5.37c39.63-.86,79.3-.18,119-.15A18.34,18.34,0,0,1,194.91,6.07Z" transform="translate(-1.4 -4.75)"/><path d="M4.63,243.74c7.64-7.2,15.39-14.29,22.89-21.63,10.29-10.06,20.32-20.38,30.64-30.42,1.77-1.73,4.4-3.64,6.65-3.66,22.52-.28,45-.17,68.86-.17v37.67c0,20.86,0,20.86-20.7,20.86H6.4Z" transform="translate(-1.4 -4.75)"/></svg>